<svg width="48" height="48" viewBox="0 0 48 48" fill="none" xmlns="http://www.w3.org/2000/svg">
  <defs>
    <linearGradient id="shieldGradient" x1="24" y1="4" x2="24" y2="48" gradientUnits="userSpaceOnUse">
      <stop stop-color="#3B82F6" />
      <stop offset="1" stop-color="#1D4ED8" />
    </linearGradient>
    <linearGradient id="cloudGradient" x1="24" y1="16" x2="24" y2="30" gradientUnits="userSpaceOnUse">
      <stop stop-color="#EFF6FF" />
      <stop offset="1" stop-color="#BFDBFE" />
    </linearGradient>
  </defs>
  
  <path 
    d="M24 4L6 11V22.5C6 34.5 13.8 45 24 48C34.2 45 42 34.5 42 22.5V11L24 4Z" 
    fill="url(#shieldGradient)"
  />
  
  <path
    d="M29 30H19C16.2 30 14 27.8 14 25C14 22.7 15.7 20.8 17.9 20.3C18.8 17.8 21.2 16 24 16C26.8 16 29.1 17.7 29.8 20.1C32.2 20.5 34 22.5 34 25C34 27.8 31.8 30 29 30Z"
    fill="url(#cloudGradient)"
    fill-opacity="0.9"
  />
</svg>
